<svg xmlns="http://www.w3.org/2000/svg" width="41.843" height="63" viewBox="0 0 41.843 63"><path d="M14,11.787A11.533,11.533,0,0,1,25.261,0H44.582A11.533,11.533,0,0,1,55.843,11.787a11.924,11.924,0,0,1-5.083,9.857A11.924,11.924,0,0,1,55.843,31.5,11.533,11.533,0,0,1,44.582,43.287h-.245a10.946,10.946,0,0,1-7.572-3.063v10.86A11.709,11.709,0,0,1,25.321,63,11.583,11.583,0,0,1,14,51.213a11.924,11.924,0,0,1,5.083-9.856,12.1,12.1,0,0,1,0-19.713A11.924,11.924,0,0,1,14,11.787ZM33.077,23.574H25.261A7.755,7.755,0,0,0,17.689,31.5a7.758,7.758,0,0,0,7.524,7.926h7.865ZM36.766,31.5a7.755,7.755,0,0,0,7.572,7.926h.245A7.755,7.755,0,0,0,52.154,31.5a7.755,7.755,0,0,0-7.572-7.926h-.245A7.755,7.755,0,0,0,36.766,31.5ZM25.261,43.287h-.048a7.934,7.934,0,0,0,.109,15.852,7.931,7.931,0,0,0,7.756-8.054v-7.8Zm0-39.426a7.755,7.755,0,0,0-7.572,7.926,7.755,7.755,0,0,0,7.572,7.926h7.817V3.861ZM36.766,19.713h7.817a7.755,7.755,0,0,0,7.572-7.926,7.755,7.755,0,0,0-7.572-7.926H36.766Z" transform="translate(-14)"/></svg>