<svg xmlns="http://www.w3.org/2000/svg" width="67" height="67" viewBox="0 0 67 67"><g transform="translate(22 3)"><path d="M33.5,0C15,0,0,15.378,0,34.348A34.29,34.29,0,0,0,22.91,66.941c1.674.318,2.289-.745,2.289-1.652,0-.819-.031-3.525-.045-6.395-9.32,2.078-11.286-4.053-11.286-4.053-1.524-3.97-3.72-5.026-3.72-5.026-3.039-2.132.229-2.088.229-2.088,3.364.242,5.135,3.54,5.135,3.54C18.5,56.518,23.348,55,25.26,54.122a7.386,7.386,0,0,1,2.127-4.593c-7.441-.869-15.263-3.814-15.263-16.975a13.481,13.481,0,0,1,3.452-9.22,12.632,12.632,0,0,1,.325-9.09s2.813-.923,9.215,3.521a31.02,31.02,0,0,1,16.777,0c6.394-4.444,9.2-3.521,9.2-3.521a12.616,12.616,0,0,1,.328,9.09,13.455,13.455,0,0,1,3.448,9.22c0,13.193-7.837,16.1-15.3,16.948,1.2,1.066,2.272,3.156,2.272,6.361,0,4.6-.039,8.295-.039,9.426,0,.914.6,1.985,2.3,1.648A34.287,34.287,0,0,0,67,34.348C67,15.378,52,0,33.5,0ZM12.547,48.93a.416.416,0,0,1-.574.1c-.243-.112-.379-.345-.3-.516s.335-.225.577-.107S12.631,48.758,12.547,48.93Zm1.648,1.508c-.16.152-.472.081-.684-.159a.534.534,0,0,1-.1-.714c.165-.152.468-.081.687.159S14.362,50.284,14.195,50.437Zm1.13,1.929c-.205.146-.541.009-.748-.3s-.205-.672,0-.818.539-.015.749.288A.618.618,0,0,1,15.325,52.366ZM17.237,54.6c-.184.208-.575.152-.861-.131a.671.671,0,0,1-.19-.878c.186-.208.579-.15.868.131S17.433,54.395,17.237,54.6Zm2.471.754c-.081.269-.458.391-.837.277s-.627-.433-.55-.7.457-.4.839-.276S19.787,55.081,19.708,55.354Zm2.812.32c.009.283-.312.518-.711.523s-.724-.22-.729-.5.315-.519.715-.526S22.52,55.392,22.52,55.674Zm2.762-.109c.048.276-.229.56-.625.636s-.749-.1-.8-.372.234-.567.622-.64S25.232,55.284,25.283,55.565Z" transform="translate(-22 -3)" fill="#161614"/></g></svg>