<svg xmlns="http://www.w3.org/2000/svg" width="54" height="54" viewBox="0 0 54 54"><path d="M27,0C12.09,0,0,12.394,0,27.684A27.637,27.637,0,0,0,18.464,53.952c1.349.256,1.845-.6,1.845-1.332,0-.66-.025-2.841-.037-5.154-7.511,1.675-9.1-3.266-9.1-3.266-1.228-3.2-3-4.051-3-4.051-2.45-1.718.185-1.683.185-1.683A5.692,5.692,0,0,1,12.5,41.32c2.408,4.232,6.316,3.009,7.857,2.3a5.953,5.953,0,0,1,1.714-3.7c-6-.7-12.3-3.074-12.3-13.681a10.865,10.865,0,0,1,2.782-7.431,10.181,10.181,0,0,1,.262-7.326s2.267-.744,7.427,2.838a25,25,0,0,1,13.522,0c5.153-3.582,7.418-2.838,7.418-2.838a10.168,10.168,0,0,1,.265,7.326,10.844,10.844,0,0,1,2.779,7.431c0,10.633-6.316,12.974-12.329,13.659a6.708,6.708,0,0,1,1.831,5.127c0,3.7-.031,6.685-.031,7.6,0,.737.486,1.6,1.855,1.328A27.634,27.634,0,0,0,54,27.684C54,12.394,41.911,0,27,0ZM10.112,39.436a.336.336,0,0,1-.463.084c-.2-.09-.306-.278-.242-.416s.27-.181.465-.086S10.18,39.3,10.112,39.436Zm1.328,1.215c-.129.122-.38.066-.551-.128a.431.431,0,0,1-.079-.575c.133-.122.377-.065.554.128S11.575,40.527,11.441,40.651Zm.911,1.555c-.165.118-.436.007-.6-.239s-.165-.541,0-.66.434-.012.6.232A.5.5,0,0,1,12.352,42.205Zm1.541,1.8c-.148.167-.463.122-.694-.106a.541.541,0,0,1-.153-.707c.15-.168.467-.121.7.106S14.05,43.84,13.893,44.006Zm1.991.608c-.065.217-.369.315-.675.223s-.505-.349-.444-.568.368-.321.676-.222S15.948,44.393,15.884,44.614Zm2.266.258c.008.228-.252.418-.573.422s-.584-.177-.588-.4.254-.418.576-.424S18.151,44.645,18.151,44.872Zm2.226-.088c.038.223-.185.452-.5.513s-.6-.079-.643-.3.188-.457.5-.516S20.336,44.558,20.377,44.784Z" fill="#161614"/></svg>